# xmcd
#
# Track frame offsets:
#	150
#	22422
#	34214
#	47203
#	61595
#	81631
#	96111
#	111373
#	127052
#	139502
#	155369
#	169396
#	185259
#	215418
#	234845
#	253148
#	263016
#	274573
#	285280
#
# Disc length: 3985 seconds
#
# Revision: 1
# Processed by: cddbd v1.5.2PL0 Copyright (c) Steve Scherf et al.
# Submitted via: EZCDAudioConverter 9.0.6.1
#
DISCID=120f8f13
DTITLE=Nina Simone - Nina Simone Music
DYEAR=1900
DGENRE=Blues
TTITLE0=Just Like A Woman
TTITLE1=He Needs Me
TTITLE2=One September Day
TTITLE3=He Ain't Comin' Home No More
TTITLE4=Don't Explain
TTITLE5=Tell Me More And More And Then Some
TTITLE6=I Think It's Going To Rain TodayKeeper Of The Flame
TTITLE7=Keeper Of The Flame
TTITLE8=July Tree
TTITLE9=I Loves You Porgy (From Porgy And Bess)
TTITLE10=Ain't No Use
TTITLE11=Solitarire
TTITLE12=Just Say I Love Him
TTITLE13=My Man's Gone Now (From Porgy And Bess)
TTITLE14=Blues For Mama
TTITLE15=For Myself
TTITLE16=In The Morning
TTITLE17=I Hold No Grudge
TTITLE18=Nina Simone Music
EXTD=
EXTT0=
EXTT1=
EXTT2=
EXTT3=
EXTT4=
EXTT5=
EXTT6=
EXTT7=
EXTT8=
EXTT9=
EXTT10=
EXTT11=
EXTT12=
EXTT13=
EXTT14=
EXTT15=
EXTT16=
EXTT17=
EXTT18=
PLAYORDER=
